<svg xmlns="http://www.w3.org/2000/svg" width="33.796" height="34.694" viewBox="0 0 33.796 34.694"><defs><style>.a{fill:#efefef;}</style></defs><path class="a" d="M153.363,59.25,137.71,43.6a1.245,1.245,0,0,0-1.761,0l-.88.881h0L120.3,59.25a1.245,1.245,0,0,0,0,1.761h0a1.245,1.245,0,0,0,1.761,0L135.95,47.119a1.245,1.245,0,0,1,1.761,0L151.6,61.011a1.245,1.245,0,0,0,1.761,0h0A1.245,1.245,0,0,0,153.363,59.25Z" transform="translate(-119.932 -43.232)"/><path class="a" d="M187.659,97.808l-10.4-10.4a.828.828,0,0,0-1.17,0l-.585.585h0l-9.819,9.819a.828.828,0,0,0,0,1.171h0a.828.828,0,0,0,1.17,0l9.234-9.234a.828.828,0,0,1,1.171,0l9.234,9.234a.828.828,0,0,0,1.17,0h0A.828.828,0,0,0,187.659,97.808Z" transform="translate(-159.771 -81.692)"/><g transform="translate(4.898 19.646)"><path class="a" d="M177.959,216.07H164.735c-3.014,0-5.467-2.771-5.467-6.176v-8.871h2.283v8.871a3.413,3.413,0,0,0,3.184,3.6h13.224a3.414,3.414,0,0,0,3.184-3.6v-8.871h2.283v8.871C183.425,213.3,180.973,216.07,177.959,216.07Z" transform="translate(-159.268 -201.022)"/></g></svg>